<?xml version="1.0" encoding="UTF-8" standalone="no"?>
<!-- Generator: Adobe Illustrator 16.0.0, SVG Export Plug-In . SVG Version: 6.00 Build 0)  -->

<svg
   xmlns:dc="http://purl.org/dc/elements/1.1/"
   xmlns:cc="http://creativecommons.org/ns#"
   xmlns:rdf="http://www.w3.org/1999/02/22-rdf-syntax-ns#"
   xmlns:svg="http://www.w3.org/2000/svg"
   xmlns="http://www.w3.org/2000/svg"
   xmlns:sodipodi="http://sodipodi.sourceforge.net/DTD/sodipodi-0.dtd"
   xmlns:inkscape="http://www.inkscape.org/namespaces/inkscape"
   version="1.1"
   id="Capa_1"
   x="0px"
   y="0px"
   width="512px"
   height="512px"
   viewBox="0 0 438.533 438.533"
   style="enable-background:new 0 0 438.533 438.533;"
   xml:space="preserve"
   sodipodi:docname="cross.svg"
   inkscape:version="0.92.2 5c3e80d, 2017-08-06"><metadata
     id="metadata3833"><rdf:RDF><cc:Work
         rdf:about=""><dc:format>image/svg+xml</dc:format><dc:type
           rdf:resource="http://purl.org/dc/dcmitype/StillImage" /></cc:Work></rdf:RDF></metadata><defs
     id="defs3831" /><sodipodi:namedview
     pagecolor="#ffffff"
     bordercolor="#666666"
     borderopacity="1"
     objecttolerance="10"
     gridtolerance="10"
     guidetolerance="10"
     inkscape:pageopacity="0"
     inkscape:pageshadow="2"
     inkscape:window-width="1112"
     inkscape:window-height="796"
     id="namedview3829"
     showgrid="false"
     inkscape:zoom="1.1464844"
     inkscape:cx="256"
     inkscape:cy="256"
     inkscape:window-x="0"
     inkscape:window-y="0"
     inkscape:window-maximized="0"
     inkscape:current-layer="Capa_1" /><g
     id="g3796"><path
       d="M409.133,109.203c-19.608-33.592-46.205-60.189-79.798-79.796C295.736,9.801,259.058,0,219.273,0   c-39.781,0-76.47,9.801-110.063,29.407c-33.595,19.604-60.192,46.201-79.8,79.796C9.801,142.8,0,179.489,0,219.267   c0,39.78,9.804,76.463,29.407,110.062c19.607,33.592,46.204,60.189,79.799,79.798c33.597,19.605,70.283,29.407,110.063,29.407   s76.47-9.802,110.065-29.407c33.593-19.602,60.189-46.206,79.795-79.798c19.603-33.596,29.403-70.284,29.403-110.062   C438.533,179.485,428.732,142.795,409.133,109.203z M322.621,270.939c3.617,3.613,5.428,7.905,5.428,12.854   c0,5.133-1.811,9.514-5.428,13.127l-25.693,25.701c-3.614,3.613-7.994,5.42-13.135,5.42c-4.948,0-9.236-1.807-12.847-5.42   l-51.676-51.682l-51.678,51.682c-3.616,3.613-7.898,5.42-12.847,5.42c-5.14,0-9.517-1.807-13.134-5.42l-25.697-25.701   c-3.616-3.613-5.424-7.994-5.424-13.127c0-4.948,1.809-9.24,5.424-12.854l51.678-51.673l-51.678-51.678   c-3.616-3.612-5.424-7.898-5.424-12.847c0-5.14,1.809-9.517,5.424-13.134l25.697-25.693c3.617-3.616,7.994-5.424,13.134-5.424   c4.949,0,9.231,1.809,12.847,5.424l51.678,51.674l51.676-51.674c3.61-3.616,7.898-5.424,12.847-5.424   c5.141,0,9.521,1.809,13.135,5.424l25.693,25.693c3.617,3.617,5.428,7.994,5.428,13.134c0,4.948-1.811,9.235-5.428,12.847   l-51.675,51.678L322.621,270.939z"
       fill="#D80027"
       id="path3794" /></g><g
     id="g3798" /><g
     id="g3800" /><g
     id="g3802" /><g
     id="g3804" /><g
     id="g3806" /><g
     id="g3808" /><g
     id="g3810" /><g
     id="g3812" /><g
     id="g3814" /><g
     id="g3816" /><g
     id="g3818" /><g
     id="g3820" /><g
     id="g3822" /><g
     id="g3824" /><g
     id="g3826" /><path
     style="fill:#ffffff;stroke-width:0.87223166"
     d="m 178.02249,382.35873 c -6.71412,-1.01994 -8.40855,-2.3128 -26.45308,-20.18387 -9.99179,-9.89573 -18.99001,-19.56225 -19.99605,-21.48116 -2.56762,-4.89744 -2.58095,-13.56721 -0.0282,-18.31687 1.03691,-1.92926 15.74364,-17.32888 32.89856,-34.44854 17.06286,-17.02779 31.02338,-31.3563 31.02338,-31.84114 0,-0.48483 -13.763,-14.61705 -30.58444,-31.40494 -16.82144,-16.78789 -31.61724,-32.25914 -32.87955,-34.38056 -3.05417,-5.13276 -3.26089,-13.60457 -0.45926,-18.8209 2.31641,-4.31292 36.1776,-38.05048 40.373,-40.2256 4.42061,-2.29189 13.33213,-2.14531 17.88074,0.29411 1.93626,1.0384 17.26686,15.67741 34.44855,32.89448 17.02779,17.06286 31.35627,31.02338 31.84106,31.02338 0.4848,0 14.81328,-13.96052 31.84107,-31.02338 17.11966,-17.15492 32.51928,-31.86165 34.44854,-32.89856 4.74966,-2.55277 13.41943,-2.53944 18.31687,0.0282 1.91891,1.00604 11.58543,10.00426 21.48116,19.99605 13.74026,13.87363 18.25037,18.97268 19.08452,21.57663 1.6328,5.09706 1.2938,12.1658 -0.78874,16.44654 -1.19927,2.46514 -12.24531,14.1344 -33.2056,35.07905 l -31.40852,31.38509 32.15456,32.28782 c 34.46297,34.6058 34.47489,34.62083 34.36806,43.30355 -0.10105,8.21163 -1.09609,9.6364 -20.18332,28.89991 -11.66727,11.77503 -19.2597,18.7467 -21.70509,19.9305 -5.06345,2.45117 -12.84681,2.45459 -17.87639,0.008 -2.5068,-1.21948 -13.99851,-12.09253 -35.11152,-33.22132 l -31.38509,-31.40852 -32.28782,32.15456 c -24.47961,24.37858 -33.0261,32.3719 -35.34064,33.05324 -4.18723,1.23261 -7.87303,1.68843 -10.46678,1.29442 z"
     id="path3837"
     inkscape:connector-curvature="0"
     transform="scale(0.85650977)" /></svg>